<?xml version="1.0" encoding="UTF-8" standalone="no"?>
<svg
   xmlns:dc="http://purl.org/dc/elements/1.1/"
   xmlns:cc="http://creativecommons.org/ns#"
   xmlns:rdf="http://www.w3.org/1999/02/22-rdf-syntax-ns#"
   xmlns:svg="http://www.w3.org/2000/svg"
   xmlns="http://www.w3.org/2000/svg"
   xmlns:sodipodi="http://sodipodi.sourceforge.net/DTD/sodipodi-0.dtd"
   xmlns:inkscape="http://www.inkscape.org/namespaces/inkscape"
   version="1.1"
   id="svg126"
   width="342"
   height="342"
   viewBox="0 0 342 342"
   sodipodi:docname="gba.svg"
   inkscape:version="1.0.2 (e86c870879, 2021-01-15, custom)">
  <metadata
     id="metadata132">
    <rdf:RDF>
      <cc:Work
         rdf:about="">
        <dc:format>image/svg+xml</dc:format>
        <dc:type
           rdf:resource="http://purl.org/dc/dcmitype/StillImage" />
        <dc:title></dc:title>
      </cc:Work>
    </rdf:RDF>
  </metadata>
  <defs
     id="defs130" />
  <sodipodi:namedview
     pagecolor="#ffffff"
     bordercolor="#666666"
     borderopacity="1"
     objecttolerance="10"
     gridtolerance="10"
     guidetolerance="10"
     inkscape:pageopacity="0"
     inkscape:pageshadow="2"
     inkscape:window-width="2556"
     inkscape:window-height="1012"
     id="namedview128"
     showgrid="false"
     inkscape:zoom="2.4532164"
     inkscape:cx="132.9374"
     inkscape:cy="168.49212"
     inkscape:window-x="0"
     inkscape:window-y="48"
     inkscape:window-maximized="0"
     inkscape:current-layer="g134" />
  <g
     inkscape:groupmode="layer"
     inkscape:label="Image"
     id="g134">
    <path
       style="fill:#000000"
       d="M 143.5,255.40509 C 112.34283,253.02152 101.76119,251.1435 87.284421,245.42798 81.115853,242.99259 75.616374,241 75.063357,241 74.51034,241 68.31175,239.425 61.288712,237.5 54.265675,235.575 47.030307,234 45.210117,234 38.975688,234 33.477242,229.54222 28.702202,220.61647 26.674794,216.82673 26.515382,215.26973 26.693797,201 c 0.357744,-28.61259 4.223264,-69.49658 6.981155,-73.83676 1.744242,-2.74498 2.284326,-2.41561 3.338607,2.03601 l 0.781718,3.30075 0.102362,-3.09636 c 0.0563,-1.703 -0.607539,-4.51939 -1.475195,-6.25865 -2.223486,-4.45708 -1.097115,-8.17829 4.288697,-14.16861 6.831135,-7.59786 9.795123,-8.70197 32.106229,-11.959762 10.825446,-1.580698 22.297778,-3.820817 25.494069,-4.978043 5.725621,-2.072975 6.825801,-2.099871 74.500001,-1.821311 L 241.5,90.5 l 5.87084,2.75 c 3.22897,1.5125 6.24648,2.75 6.70559,2.75 0.45912,0 2.41622,1.073215 4.34913,2.384923 4.39052,2.979487 20.67679,8.202687 30.46629,9.770907 9.01175,1.44362 11.94904,3.64431 13.17803,9.8733 5.22301,26.47237 9.58039,84.38809 7.04422,93.62768 -0.66019,2.40517 -3.07063,6.30302 -5.72022,9.25 -2.51857,2.80125 -4.20002,5.12974 -3.73655,5.17441 0.46347,0.0447 -0.50733,0.69937 -2.15733,1.45489 -1.82971,0.83782 -2.33091,1.39128 -1.2848,1.41879 2.34017,0.0615 8.93928,-5.87485 8.12123,-7.30564 -0.36139,-0.63209 -0.28884,-0.81566 0.16124,-0.40794 0.45007,0.40773 1.49589,0.18273 2.32404,-0.5 1.31177,-1.08142 1.3521,-0.95299 0.31309,0.99697 -2.09156,3.92535 -8.59444,10.09314 -11.15759,10.58265 -10.11209,1.93118 -13.35645,2.68569 -19.97721,4.64589 -9.47165,2.80426 -22.53551,7.12975 -31.21549,10.33557 -7.90148,2.9183 -14.88323,4.22165 -33.54565,6.26231 -13.16656,1.4397 -57.30203,2.63881 -67.73886,1.84038 z m 50.15792,-3.24723 c 3.38686,-0.02 8.78686,-0.48468 12,-1.0325 3.21315,-0.54782 9.21708,-1.33827 13.34208,-1.75655 6.15413,-0.62404 6.87193,-0.86261 4,-1.32945 -2.87745,-0.46773 -1.57147,-0.90496 7.34216,-2.45811 5.96319,-1.03904 14.96319,-3.43584 20,-5.32621 5.03681,-1.89037 10.95784,-3.906 13.15784,-4.47919 2.2,-0.57318 4.9,-1.39731 6,-1.83141 6.63799,-2.61957 16.64937,-4.86457 19.31539,-4.33136 2.73181,0.54636 3.62308,-0.018 9.08623,-5.75365 9.37537,-9.84299 10.34986,-12.4836 10.2079,-27.66095 -0.20019,-21.40318 -2.54962,-45.80948 -6.78035,-70.43559 -2.11436,-12.30722 -2.90225,-13.10858 -15.36941,-15.6324 C 273.86587,107.68223 267.02218,105.33189 254,99.154449 248.225,96.414917 240.8,93.701983 237.5,93.125708 230.93302,91.978925 116.5612,91.53635 106.76945,92.619831 c -3.35053,0.370745 -5.47895,1.041184 -5.12477,1.614268 0.36281,0.587044 -0.20434,0.723046 -1.41408,0.339091 -1.211601,-0.384548 -2.614614,-0.04632 -3.50618,0.845247 -0.817479,0.817479 -1.722791,1.249859 -2.011805,0.960845 -0.289014,-0.289014 -4.298072,1.275104 -8.909019,3.475817 C 76.86402,104.12178 60.729104,109.26261 52.5,110.46613 c -6.244476,0.91327 -8.826083,2.24173 -8.089014,4.1625 0.320479,0.83515 0.134122,1.20827 -0.429503,0.85993 -0.547585,-0.33843 -1.265575,0.0882 -1.595535,0.94806 C 42.055989,117.29648 41.131595,118 40.331738,118 c -1.14621,0 -1.31809,0.9082 -0.811371,4.28725 0.367334,2.44956 -0.237398,11.34385 -1.410814,20.75 -4.225419,33.87113 -5.269048,63.02441 -2.503568,69.93603 0.913398,2.28281 2.058164,3.73429 2.654508,3.36573 0.576688,-0.35642 0.793899,-0.23604 0.482691,0.26751 -0.886885,1.43501 1.955655,4.69764 3.34479,3.83911 0.734889,-0.45419 0.963748,-0.33834 0.574812,0.29098 -0.355427,0.57509 1.116985,2.63858 3.272028,4.58553 l 3.918261,3.53992 -3.176538,-0.0448 c -3.58536,-0.0506 -6.858316,-1.84108 -10.404843,-5.69208 L 33.854091,220.5 l 2.123824,3.06444 c 2.554363,3.68566 6.472244,6.13614 11.101297,6.94342 12.169265,2.12225 38.868793,9.8575 44.938741,13.01943 4.44841,2.31724 18.111627,5.26461 31.982047,6.89903 28.81502,3.04797 40.97494,1.91725 69.65792,1.73154 z M 199,249.7992 c 0,-0.43956 2.3625,-0.747 5.25,-0.6832 5.45493,0.12053 4.93112,0.51358 -1.5,1.12556 -2.0625,0.19626 -3.75,-0.003 -3.75,-0.44236 z m -86.5,-2.72309 c -9.49396,-1.76902 -19.973462,-4.93598 -19.128661,-5.78078 0.275497,-0.2755 3.342149,0.43312 6.814781,1.57471 3.47263,1.14159 9.68888,2.60132 13.81388,3.24385 4.125,0.64253 7.9275,1.55476 8.45,2.02717 1.14033,1.03102 1.51231,1.07084 -9.95,-1.06495 z m 99.75,1.23456 c 0.9625,-0.25152 2.5375,-0.25152 3.5,0 0.9625,0.25153 0.175,0.45733 -1.75,0.45733 -1.925,0 -2.7125,-0.2058 -1.75,-0.45733 z M 87.5,239 c -0.339919,-0.55 -0.141476,-1 0.440983,-1 C 88.523442,238 89,238.45 89,239 c 0,0.55 -0.198442,1 -0.440983,1 -0.242541,0 -0.719098,-0.45 -1.059017,-1 z m -3.6875,-1.68311 c 0.721875,-0.28887 1.584375,-0.25335 1.916667,0.0789 0.332291,0.33229 -0.258334,0.56864 -1.3125,0.52522 -1.164943,-0.048 -1.4019,-0.28494 -0.604167,-0.60416 z M 74,235.0415 c -3.025,-1.00998 -5.184456,-1.88249 -4.79879,-1.93891 1.05029,-0.15366 12.022233,2.78752 12.616826,3.38211 0.996503,0.99651 -2.374784,0.37417 -7.818036,-1.4432 z m 77,-0.72602 c -6.5827,-0.49021 -29.54476,-4.21623 -36.5,-5.92281 -8.04295,-1.496 -13.59037,-6.00099 -16.876196,-8.7659 -2.784267,-1.56383 -1.77089,-32.74584 -1.77089,-32.74584 0,0 2.684309,-46.00933 3.021421,-49.43926 -0.06913,-3.40017 0.330035,-7.75337 0.397419,-9.95465 -0.748661,-13.34144 12.139046,-17.56344 25.758706,-19.1539 12.23096,-1.4283 24.51931,-1.12279 34.96954,-0.97123 24.11011,-0.62144 49.10904,0.40631 68.27375,2.80687 7.82603,0.98028 9.04124,1.41687 11.25,4.04184 1.36194,1.61857 2.49014,3.69582 2.50713,4.61613 0.017,0.9203 0.4352,4.82327 0.92938,8.67327 1.67368,13.03915 4.20029,63.22335 3.86906,76.8483 l -0.32932,13.54656 -3.4744,3.5817 c -2.37829,2.45173 -5.43998,4.18881 -9.70478,5.50607 -7.43929,2.29776 -24.36425,5.49522 -36.82082,6.95618 -8.23998,0.96642 -34.64519,1.18501 -45.5,0.37667 z m 51.02616,-2.81893 c 23.76389,-3.13429 34.21507,-6.08783 39.00111,-11.02182 l 3.47273,-3.58008 0.35245,-12.19732 c 0.40574,-14.0417 -1.29923,-50.31337 -3.39367,-72.19733 -1.4014,-14.64264 -1.50773,-15.06552 -4.46297,-17.75 -1.66505,-1.5125 -3.80776,-2.75482 -4.76159,-2.76071 -0.95382,-0.006 -8.03422,-0.68006 -15.73422,-1.49815 -24.4827,-2.60121 -102.31854,1.49322 -102.31854,1.49322 -6.06052,1.0505 -10.17269,4.59553 -11.5384,11.65694 0,0 -3.611278,47.56198 -3.860568,67.8587 -0.266123,21.66725 -0.163639,23.20281 1.768628,26.5 3.73972,6.38139 10.72635,8.80796 37.44888,13.00657 15.03751,2.36268 47.91965,2.61432 64.02616,0.48998 z m -93.53444,-26.65753 c -0.28273,-0.7368 -0.39654,-20.23949 -0.25289,-43.33933 L 108.5,119.5 h 62.5 62.5 v 42.93801 42.93802 l -62.24711,0.40131 c -51.37443,0.33122 -62.33689,0.16732 -62.76117,-0.93832 z M 231.97789,162 l 0.0624,-41 h -61.02014 -61.02014 v 40.33333 c 0,22.18334 0.3,40.63334 0.66667,41 C 111.03333,202.7 138.46432,203 171.62441,203 h 60.29108 z M 58.295217,231.07268 c -3.41263,-0.9069 -6.52513,-1.96926 -6.916666,-2.3608 -0.391537,-0.39153 -0.524384,-0.70417 -0.295218,-0.69474 1.415104,0.0582 15.20102,3.93388 15.67347,4.40633 0.868072,0.86807 -1.586752,0.47619 -8.461586,-1.35079 z M 298,220.3293 c 0,-0.56063 0.93715,-1.86743 2.08255,-2.90401 3.78408,-3.42454 4.9176,-7.9903 4.91502,-19.79741 -0.005,-22.40999 -5.04044,-70.39449 -8.51366,-81.12788 -0.6127,-1.89345 -0.56883,-1.90467 0.82345,-0.21068 3.31608,4.03469 8.24516,42.78475 9.24893,72.71068 0.5776,17.22038 0.47966,18.81312 -1.41602,23.02696 C 303.17482,216.3959 298,222.41292 298,220.3293 Z M 83.75,215.9199 c -2.663196,-1.55117 -2.249042,-6.3629 0.714817,-8.30489 3.084778,-2.02122 4.419451,-2.02972 6.615731,-0.0421 1.375813,1.2451 1.552335,2.22038 0.847011,4.6797 -1.310255,4.56859 -4.315918,5.91651 -8.177559,3.66731 z M 88,212.89301 c 0,-1.57216 -0.444214,-1.95229 -1.75,-1.49755 -1.458797,0.50804 -1.426992,0.35944 0.19113,-0.89301 C 87.508751,209.6761 87.901351,209 87.313574,209 86.725798,209 85.684689,209.675 85,210.5 c -0.993186,1.19672 -0.993186,1.80328 0,3 1.754843,2.11446 3,1.86252 3,-0.60699 z m 4,-3.27057 c 0,-0.20765 -0.7875,-0.99515 -1.75,-1.75 -1.586056,-1.24387 -1.621426,-1.2085 -0.377555,0.37756 C 91.178814,209.91575 92,210.44548 92,209.62244 Z m -54.88438,1.27938 c -2.656444,-7.62028 -0.178707,-48.21277 4.96871,-81.40182 0.682413,-4.4 1.428638,-7.44191 1.658278,-6.7598 0.22964,0.68211 -0.283346,6.08211 -1.139968,12 -4.102593,28.34237 -6.515359,67.1565 -4.613609,74.21907 1.362228,5.05892 0.714873,6.49871 -0.873411,1.94255 z m 46.539368,-11.73056 c -2.15105,-2.37688 -2.095433,-4.46269 0.173753,-6.51627 C 87.482466,189.34841 92,191.19772 92,196 c 0,4.87995 -5.058866,6.80241 -8.345012,3.17126 z M 87.803177,196 c -0.263431,-3.45722 -1.281298,-3.84366 -2.774604,-1.05339 -0.818528,1.52943 -0.665336,2.16585 0.714816,2.96959 0.966136,0.56264 1.876259,1.03667 2.022495,1.05339 0.146237,0.0167 0.163019,-1.31959 0.03729,-2.96959 z m 1.859104,-1.25 c -0.277413,-0.6875 -0.504386,-0.125 -0.504386,1.25 0,1.375 0.226973,1.9375 0.504386,1.25 0.277412,-0.6875 0.277412,-1.8125 0,-2.5 z M 61.35236,175.76111 c -0.421121,-0.68138 -0.842992,-2.81888 -0.937492,-4.75 C 60.320368,169.08 60.188364,166.9375 60.121525,166.25 60.042824,165.44049 58.30852,165 55.2,165 c -2.64,0 -5.34,-0.54 -6,-1.2 -1.55804,-1.55804 -1.55804,-12.04196 0,-13.6 0.66,-0.66 3.36,-1.2 6,-1.2 3.866789,0 4.81938,-0.34023 4.89968,-1.75 0.06645,-1.16667 0.36656,-0.91667 0.90032,0.75 0.638775,1.99458 0.817696,1.48915 0.885007,-2.5 0.06024,-3.57012 -0.19285,-4.57104 -0.885007,-3.5 -1.360558,2.10531 -1.330499,-0.51394 0.03518,-3.06574 0.859574,-1.60613 2.131881,-1.93426 7.5,-1.93426 3.555649,0 6.46543,0.3375 6.466179,0.75 7.5e-4,0.4125 -2.519953,0.5932 -5.601562,0.40156 -3.081609,-0.19164 -5.985541,0.0334 -6.453182,0.5 -0.467641,0.46664 2.274617,0.77334 6.093907,0.68155 3.81929,-0.0918 7.199166,0.2457 7.510836,0.75 0.311669,0.50429 0.09011,0.91689 -0.492345,0.91689 -1.439642,0 -1.342223,3.31679 0.140983,4.8 0.933333,0.93333 0.933333,1.2 0,1.2 -0.66,0 -1.164474,0.7875 -1.121053,1.75 0.04342,0.9625 0.270162,1.29478 0.503868,0.7384 0.253174,-0.60273 2.747412,-0.80482 6.171053,-0.5 L 87.5,149.5 v 7.5 7.5 l -5.5,0.5 -5.5,0.5 v 4.0953 c 0,5.98977 -1.636352,7.4047 -8.563428,7.4047 -3.548303,0 -6.117283,-0.48338 -6.584212,-1.23889 z M 72.25,175.33772 c -0.6875,-0.27741 -1.8125,-0.27741 -2.5,0 -0.6875,0.27741 -0.125,0.50439 1.25,0.50439 1.375,0 1.9375,-0.22698 1.25,-0.50439 z M 72,171 c 0,-1.1 -0.442777,-2 -0.983949,-2 -0.541173,0 -0.04574,-1.8 1.100967,-4 1.890108,-3.62625 2.44923,-4 5.983949,-4 C 81.983172,161 82,160.98274 82,157 c 0,-3.91881 -0.07238,-4 -3.565741,-4 -5.377077,0 -7.457385,-1.5056 -7.302618,-5.28518 L 71.263282,144.5 72,148 c 0.685192,3.25521 0.745924,3.13282 0.868359,-1.75 L 73,141 H 68.5 64 v 4.94098 c 0,5.74234 -0.810506,6.49885 -7,6.53369 l -4.5,0.0253 v 4 4 l 5.153872,0.29893 c 4.520506,0.26219 5.229471,0.60014 5.769052,2.75 0.338349,1.34809 0.3207,3.62437 -0.03922,5.0584 -0.784327,3.12501 0.72414,4.35549 5.366295,4.37736 C 71.338438,172.99688 72,172.59288 72,171 Z m -5.921053,-14.58333 c 0.04798,-1.16495 0.284941,-1.4019 0.604167,-0.60417 0.288871,0.72187 0.253344,1.58437 -0.07895,1.91667 -0.332292,0.33229 -0.568641,-0.25834 -0.52522,-1.3125 z m -5.809915,6.92739 c -0.677033,-0.27392 -2.027033,-0.29059 -3,-0.0371 C 56.296064,163.5605 56.85,163.78462 58.5,163.805 c 1.65,0.0204 2.446064,-0.18706 1.769032,-0.46099 z M 49.717581,154.26375 C 49.487727,152.74369 49.293522,153.75 49.286014,156.5 c -0.0075,2.75 0.180555,3.99369 0.417917,2.76375 0.237362,-1.22994 0.243505,-3.47994 0.01365,-5 z M 83.25,150.29427 c -1.2375,-0.23836 -3.2625,-0.23836 -4.5,0 -1.2375,0.23835 -0.225,0.43337 2.25,0.43337 2.475,0 3.4875,-0.19502 2.25,-0.43337 z m 174.69651,19.04119 c -3.9143,-1.64584 -6.06783,-6.50944 -4.76252,-10.75586 0.52065,-1.69378 1.06758,-3.72009 1.2154,-4.50291 0.14782,-0.78282 1.13092,-1.56687 2.18468,-1.74232 9.50106,-1.58192 9.04755,-1.63533 12.52924,1.47556 2.84367,2.54082 3.34116,3.63494 3.24911,7.14565 -0.19488,7.43199 -7.11008,11.45175 -14.41591,8.37988 z M 266,166.94098 c 0,-0.58246 0.41891,-0.80012 0.9309,-0.48369 0.512,0.31644 1.25653,0.0485 1.65451,-0.59549 0.47801,-0.77343 0.28773,-0.90143 -0.56063,-0.37711 -0.8614,0.53237 -1.11806,0.3363 -0.77951,-0.59549 0.2776,-0.76406 1.01098,-1.2767 1.62973,-1.1392 0.64264,0.14281 1.125,-1.0616 1.125,-2.80902 0,-1.68246 -0.38986,-2.81807 -0.86635,-2.52358 -0.92885,0.57406 -3.90879,-2.26162 -4.11669,-3.9174 -0.21822,-1.73795 -5.20049,-0.67621 -7.65724,1.63178 -2.90917,2.73303 -3.00391,5.77954 -0.28714,9.23336 1.5188,1.93084 2.98837,2.63486 5.5,2.63486 1.88508,0 3.42742,-0.47656 3.42742,-1.05902 z m 16.47251,-6.32258 c -1.08488,-0.75988 -2.38527,-1.32238 -2.88975,-1.25 -0.50449,0.0724 -1.10202,-2.07298 -1.32786,-4.76746 -0.32965,-3.93322 0.0367,-5.51041 1.85839,-8 1.38748,-1.89621 1.61198,-2.56774 0.57786,-1.7285 -1.10194,0.89428 -1.69115,0.98138 -1.69115,0.25 0,-0.61734 0.3375,-1.15994 0.75,-1.20577 0.73745,-0.0819 1.5224,-0.2296 7.98823,-1.50264 2.79115,-0.54955 3.72307,-0.15273 6.75,2.8742 4.64845,4.64845 4.85647,9.52091 0.58869,13.78869 -3.2858,3.28581 -9.09903,3.99675 -12.60441,1.54148 z m 8.02633,-1.62027 c -0.34055,-0.55103 0.49438,-1.42525 1.85542,-1.94272 3.25281,-1.23671 4.10915,-4.25859 2.23425,-7.88425 -3.08297,-5.96181 -10.14827,-5.63863 -13.48057,0.61661 -1.54591,2.90192 -0.69088,5.60853 2.58603,8.18614 2.6211,2.06177 7.94097,2.86247 6.80487,1.02422 z M 44,119 c 0,-1.1 0.407871,-2 0.90638,-2 0.49851,0 0.671025,0.9 0.383369,2 -0.287656,1.1 -0.695528,2 -0.90638,2 C 44.172516,121 44,120.1 44,119 Z m -11.824262,97.04617 c -0.921656,-2.1746 -1.815569,-3.55511 -1.986474,-3.06779 -0.315502,0.89962 2.5287,7.02162 3.262154,7.02162 0.220032,0 -0.354024,-1.77922 -1.27568,-3.95383 z M 29.735039,196.25 c -0.205998,-2.6125 -0.374543,-0.475 -0.374543,4.75 0,5.225 0.168545,7.3625 0.374543,4.75 0.205999,-2.6125 0.205999,-6.8875 0,-9.5 z m 2.981215,-17 c -0.229124,-1.5125 -0.41659,-0.275 -0.41659,2.75 0,3.025 0.187466,4.2625 0.41659,2.75 0.229125,-1.5125 0.229125,-3.9875 0,-5.5 z m -1.992858,-3.5 c -0.221827,-1.7875 -0.403322,-0.325 -0.403322,3.25 0,3.575 0.181495,5.0375 0.403322,3.25 0.221826,-1.7875 0.221826,-4.7125 0,-6.5 z m 2.96593,-11.5 c -0.251528,-0.9625 -0.457323,-0.175 -0.457323,1.75 0,1.925 0.205795,2.7125 0.457323,1.75 0.251527,-0.9625 0.251527,-2.5375 0,-3.5 z m -1.983593,-2.5 c -0.238353,-1.2375 -0.433369,-0.225 -0.433369,2.25 0,2.475 0.195016,3.4875 0.433369,2.25 0.238353,-1.2375 0.238353,-3.2625 0,-4.5 z m 1.001528,-9.98834 C 32.468068,150.51775 32.263283,151.3 32.252183,153.5 c -0.0111,2.2 0.184605,3.21775 0.434897,2.26166 0.250293,-0.95609 0.259374,-2.75609 0.02018,-4 z m 1.98573,1.50737 C 34.439447,152.29606 34.215328,152.85 34.194949,154.5 c -0.02038,1.65 0.187065,2.44606 0.460988,1.76903 0.273923,-0.67703 0.290597,-2.02703 0.03705,-3 z m 0.96929,-8.51903 c -0.277413,-0.6875 -0.504386,-0.125 -0.504386,1.25 0,1.375 0.226973,1.9375 0.504386,1.25 0.277412,-0.6875 0.277412,-1.8125 0,-2.5 z m -2,-2 c -0.277413,-0.6875 -0.504386,-0.125 -0.504386,1.25 0,1.375 0.226973,1.9375 0.504386,1.25 0.277412,-0.6875 0.277412,-1.8125 0,-2.5 z m 1.04498,-8.98834 C 34.468068,132.51775 34.263283,133.3 34.252183,135.5 c -0.0111,2.2 0.184605,3.21775 0.434897,2.26166 0.250293,-0.95609 0.259374,-2.75609 0.02018,-4 z m 1.98573,1.50737 C 36.439447,134.29606 36.215328,134.85 36.194949,136.5 c -0.02038,1.65 0.187065,2.44606 0.460988,1.76903 0.273923,-0.67703 0.290597,-2.02703 0.03705,-3 z m 5.494031,-22.72596 c 2.961423,-3.09009 4.427179,-3.67878 13.812978,-5.54766 10.054397,-2.00201 19.066078,-4.71849 25.5,-7.686716 2.782009,-1.283453 2.491353,-1.338681 -4,-0.760044 -10.121794,0.902254 -23.599557,3.04424 -26.514675,4.21391 C 47.873138,104.0113 38,113.16447 38,114.80096 c 0,1.81717 0.582897,1.50284 4.187022,-2.25789 z M 301.5,224 c 0.99549,-1.1 2.03498,-2 2.30998,-2 0.275,0 -0.31449,0.9 -1.30998,2 -0.99549,1.1 -2.03498,2 -2.30998,2 -0.275,0 0.31449,-0.9 1.30998,-2 z M 260.25,97.310674 c -173.5,-64.873783 -86.75,-32.436891 0,0 z"
       id="path234080"
       sodipodi:nodetypes="ssssssssscsssssscssssssssssssssssssscssssssssssssssssssssssssssssssssscsscsssccssssssssssssssssssscssccssssscccccscssssscsssssscssscsccsssssscccccssccccsssccssssssscsssssssssssssssssssssssssssssssssssssssssssssssssssssssssssssssssscccccsssssssssssssscsscccsscccssssssssssccsccsssssssssssssssssssssssssssssssssssssssssssssssssssssssssssssssssssssssssssssssssssssssssssssssssssssssssssssssscc" />
  </g>
</svg>
